<?xml version="1.0" encoding="utf-8"?>
<!DOCTYPE score-partwise  PUBLIC "-//Recordare//DTD MusicXML 3.1 Partwise//EN" "http://www.musicxml.org/dtds/partwise.dtd">
<score-partwise version="3.1">
  <work>
    <work-title>445-Beethoven-sonateop110.musicxml</work-title>
  </work>
  <movement-title>445-Beethoven-sonateop110.musicxml</movement-title>
  <identification>
    <creator type="composer">Music21</creator>
    <encoding>
      <encoding-date>2023-02-27</encoding-date>
      <software>music21 v.7.3.3</software>
      <software>MuseScore 3.6.2</software>
      <supports attribute="new-system" element="print" type="yes" value="yes" />
      <supports attribute="new-page" element="print" type="yes" value="yes" />
    </encoding>
  </identification>
  <defaults>
    <scaling>
      <millimeters>7.452</millimeters>
      <tenths>40</tenths>
    </scaling>
    <page-layout>
      <page-height>1593.83</page-height>
      <page-width>1127.54</page-width>
      <page-margins>
        <left-margin>79.9785</left-margin>
        <right-margin>79.9785</right-margin>
        <top-margin>79.9785</top-margin>
        <bottom-margin>79.9785</bottom-margin>
      </page-margins>
    </page-layout>
    <word-font font-family="Edwin" font-size="10" />
    <lyric-font font-family="Default" font-size="10" />
  </defaults>
  <credit page="1">
    <credit-words default-x="563.768" default-y="1513.85" font-size="22" justify="center" valign="top">Sonata op.110</credit-words>
  </credit>
  <credit page="1">
    <credit-words default-x="1047.56" default-y="1413.85" justify="right" valign="bottom">L.v. Beethoven</credit-words>
  </credit>
  <part-list>
    <score-part id="P1">
      <part-name>Voice</part-name>
      <part-abbreviation>V</part-abbreviation>
      <score-instrument id="I8f3087c907804a5578223a625ca48869">
        <instrument-name>Voice Oohs</instrument-name>
        <instrument-abbreviation>V</instrument-abbreviation>
      </score-instrument>
      <midi-instrument id="I8f3087c907804a5578223a625ca48869">
        <midi-channel>1</midi-channel>
        <midi-program>54</midi-program>
      </midi-instrument>
    </score-part>
  </part-list>
  <!--=========================== Part 1 ===========================-->
  <part id="P1">
    <!--========================= Measure 1 ==========================-->
    <measure number="1" width="230.63">
      <print>
        <system-layout>
          <system-margins>
            <left-margin>50</left-margin>
            <right-margin>0</right-margin>
          </system-margins>
          <top-system-distance>170</top-system-distance>
        </system-layout>
      </print>
      <attributes>
        <divisions>10080</divisions>
        <key>
          <fifths>-6</fifths>
        </key>
        <time>
          <beats>12</beats>
          <beat-type>16</beat-type>
        </time>
        <clef>
          <sign>G</sign>
          <line>2</line>
        </clef>
      </attributes>
      <direction placement="above">
        <direction-type>
          <words default-x="-49.52" default-y="4.22" enclosure="none" font-size="12" font-weight="bold" relative-y="20">Adagio ma non troppo</words>
        </direction-type>
      </direction>
      <direction placement="above">
        <direction-type>
          <words color="#FF0000" enclosure="none">ks=5</words>
        </direction-type>
      </direction>
      <direction placement="above">
        <direction-type>
          <metronome parentheses="no">
            <beat-unit>eighth</beat-unit>
            <beat-unit-dot />
            <per-minute>80</per-minute>
          </metronome>
        </direction-type>
        <sound tempo="60" />
      </direction>
      <note>
        <rest measure="yes" />
        <duration>30240</duration>
      </note>
    </measure>
    <!--========================= Measure 2 ==========================-->
    <measure number="2" width="216.14">
      <direction placement="below">
        <direction-type>
          <dynamics default-x="3.25" default-y="-40" relative-y="-25">
            <p />
          </dynamics>
        </direction-type>
        <sound dynamics="44" />
      </direction>
      <note color="#FF0000" default-x="13" default-y="-5">
        <pitch>
          <step>D</step>
          <alter>1</alter>
          <octave>5</octave>
        </pitch>
        <duration>7560</duration>
        <tie type="start" />
        <type>eighth</type>
        <dot />
        <accidental>sharp</accidental>
        <stem>down</stem>
        <notehead color="#FF0000" parentheses="no">normal</notehead>
        <notations>
          <tied type="start" />
        </notations>
      </note>
      <note color="#FF0000" default-x="49.96" default-y="-5">
        <pitch>
          <step>D</step>
          <alter>1</alter>
          <octave>5</octave>
        </pitch>
        <duration>5040</duration>
        <tie type="stop" />
        <type>eighth</type>
        <accidental>sharp</accidental>
        <stem>down</stem>
        <notehead color="#FF0000" parentheses="no">normal</notehead>
        <beam number="1">begin</beam>
        <notations>
          <tied type="stop" />
          <slur number="1" placement="above" type="start" />
        </notations>
      </note>
      <note color="#FF0000" default-x="80.26" default-y="-10">
        <pitch>
          <step>C</step>
          <alter>1</alter>
          <octave>5</octave>
        </pitch>
        <duration>2520</duration>
        <tie type="start" />
        <type>16th</type>
        <accidental>sharp</accidental>
        <stem>down</stem>
        <notehead color="#FF0000" parentheses="no">normal</notehead>
        <beam number="1">end</beam>
        <beam number="2">backward hook</beam>
        <notations>
          <tied type="start" />
        </notations>
      </note>
      <note color="#FF0000" default-x="99.21" default-y="-10">
        <pitch>
          <step>C</step>
          <alter>1</alter>
          <octave>5</octave>
        </pitch>
        <duration>5040</duration>
        <tie type="stop" />
        <type>eighth</type>
        <accidental>sharp</accidental>
        <stem>down</stem>
        <notehead color="#FF0000" parentheses="no">normal</notehead>
        <beam number="1">begin</beam>
        <notations>
          <tied type="stop" />
        </notations>
      </note>
      <note color="#FF0000" default-x="129.52" default-y="-15">
        <pitch>
          <step>B</step>
          <alter>-1</alter>
          <octave>4</octave>
        </pitch>
        <duration>2520</duration>
        <type>16th</type>
        <stem>down</stem>
        <notehead color="#FF0000" parentheses="no">normal</notehead>
        <beam number="1">end</beam>
        <beam number="2">backward hook</beam>
        <notations>
          <slur number="1" type="stop" />
        </notations>
      </note>
      <note color="#FF0000" default-x="148.46" default-y="-20">
        <pitch>
          <step>A</step>
          <alter>1</alter>
          <octave>4</octave>
        </pitch>
        <duration>2520</duration>
        <type>16th</type>
        <accidental>sharp</accidental>
        <stem>down</stem>
        <notehead color="#FF0000" parentheses="no">normal</notehead>
        <beam number="1">begin</beam>
        <beam number="2">begin</beam>
      </note>
      <note color="#FF0000" default-x="167.4" default-y="-15">
        <pitch>
          <step>B</step>
          <alter>-1</alter>
          <octave>4</octave>
        </pitch>
        <duration>2520</duration>
        <type>16th</type>
        <stem>down</stem>
        <notehead color="#FF0000" parentheses="no">normal</notehead>
        <beam number="1">continue</beam>
        <beam number="2">continue</beam>
      </note>
      <note color="#FF0000" default-x="186.34" default-y="-25">
        <pitch>
          <step>G</step>
          <alter>1</alter>
          <octave>4</octave>
        </pitch>
        <duration>2520</duration>
        <type>16th</type>
        <accidental>sharp</accidental>
        <stem>down</stem>
        <notehead color="#FF0000" parentheses="no">normal</notehead>
        <beam number="1">end</beam>
        <beam number="2">end</beam>
      </note>
    </measure>
    <!--========================= Measure 3 ==========================-->
    <measure number="3" width="227.03">
      <note color="#FF0000" default-x="13" default-y="-25">
        <pitch>
          <step>G</step>
          <alter>1</alter>
          <octave>4</octave>
        </pitch>
        <duration>7560</duration>
        <type>eighth</type>
        <dot />
        <accidental>sharp</accidental>
        <stem>up</stem>
        <notehead color="#FF0000" parentheses="no">normal</notehead>
        <beam number="1">begin</beam>
      </note>
      <note default-x="57.36" default-y="-30">
        <pitch>
          <step>G</step>
          <alter>0</alter>
          <octave>4</octave>
        </pitch>
        <duration>7560</duration>
        <tie type="start" />
        <type>eighth</type>
        <dot />
        <accidental>natural</accidental>
        <stem>up</stem>
        <beam number="1">end</beam>
        <notations>
          <tied type="start" />
        </notations>
      </note>
      <note default-x="101.73" default-y="-30">
        <pitch>
          <step>G</step>
          <octave>4</octave>
        </pitch>
        <duration>5040</duration>
        <tie type="stop" />
        <type>eighth</type>
        <stem>down</stem>
        <beam number="1">begin</beam>
        <notations>
          <tied type="stop" />
        </notations>
      </note>
      <note color="#FF0000" default-x="138.11" default-y="0">
        <pitch>
          <step>E</step>
          <alter>-1</alter>
          <octave>5</octave>
        </pitch>
        <duration>2520</duration>
        <tie type="start" />
        <type>16th</type>
        <accidental>flat</accidental>
        <stem>down</stem>
        <notehead color="#FF0000" parentheses="no">normal</notehead>
        <beam number="1">end</beam>
        <beam number="2">backward hook</beam>
        <notations>
          <tied type="start" />
        </notations>
      </note>
      <note color="#FF0000" default-x="160.85" default-y="0">
        <pitch>
          <step>E</step>
          <alter>-1</alter>
          <octave>5</octave>
        </pitch>
        <duration>5040</duration>
        <tie type="stop" />
        <type>eighth</type>
        <stem>down</stem>
        <notehead color="#FF0000" parentheses="no">normal</notehead>
        <beam number="1">begin</beam>
        <notations>
          <tied type="stop" />
        </notations>
      </note>
      <note color="#FF0000" default-x="197.23" default-y="-5">
        <pitch>
          <step>D</step>
          <alter>1</alter>
          <octave>5</octave>
        </pitch>
        <duration>2520</duration>
        <type>16th</type>
        <accidental>sharp</accidental>
        <stem>down</stem>
        <notehead color="#FF0000" parentheses="no">normal</notehead>
        <beam number="1">end</beam>
        <beam number="2">backward hook</beam>
      </note>
    </measure>
    <!--========================= Measure 4 ==========================-->
    <measure number="4" width="243.78">
      <direction placement="below">
        <direction-type>
          <wedge number="1" spread="0" type="crescendo" />
        </direction-type>
      </direction>
      <note color="#FF0000" default-x="13" default-y="-5">
        <pitch>
          <step>D</step>
          <alter>1</alter>
          <octave>5</octave>
        </pitch>
        <duration>5040</duration>
        <type>eighth</type>
        <accidental>sharp</accidental>
        <stem>down</stem>
        <notehead color="#FF0000" parentheses="no">normal</notehead>
        <beam number="1">begin</beam>
        <notations>
          <slur number="2" placement="above" type="start" />
        </notations>
      </note>
      <note color="#FF0000" default-x="47.09" default-y="10">
        <pitch>
          <step>G</step>
          <alter>1</alter>
          <octave>5</octave>
        </pitch>
        <duration>2520</duration>
        <tie type="start" />
        <type>16th</type>
        <accidental>sharp</accidental>
        <stem>down</stem>
        <notehead color="#FF0000" parentheses="no">normal</notehead>
        <beam number="1">end</beam>
        <beam number="2">backward hook</beam>
        <notations>
          <tied type="start" />
        </notations>
      </note>
      <note color="#FF0000" default-x="69.09" default-y="10">
        <pitch>
          <step>G</step>
          <alter>1</alter>
          <octave>5</octave>
        </pitch>
        <duration>5040</duration>
        <tie type="stop" />
        <type>eighth</type>
        <accidental>sharp</accidental>
        <stem>down</stem>
        <notehead color="#FF0000" parentheses="no">normal</notehead>
        <beam number="1">begin</beam>
        <notations>
          <tied type="stop" />
        </notations>
      </note>
      <note color="#FF0000" default-x="103.18" default-y="5">
        <pitch>
          <step>F</step>
          <alter>1</alter>
          <octave>5</octave>
        </pitch>
        <duration>2520</duration>
        <tie type="start" />
        <type>16th</type>
        <accidental>sharp</accidental>
        <stem>down</stem>
        <notehead color="#FF0000" parentheses="no">normal</notehead>
        <beam number="1">end</beam>
        <beam number="2">backward hook</beam>
        <notations>
          <tied type="start" />
          <slur number="2" type="stop" />
        </notations>
      </note>
      <note color="#FF0000" default-x="124.49" default-y="5">
        <pitch>
          <step>F</step>
          <alter>1</alter>
          <octave>5</octave>
        </pitch>
        <duration>5040</duration>
        <tie type="stop" />
        <type>eighth</type>
        <accidental>sharp</accidental>
        <stem>down</stem>
        <notehead color="#FF0000" parentheses="no">normal</notehead>
        <beam number="1">begin</beam>
        <notations>
          <tied type="stop" />
          <slur number="3" placement="above" type="start" />
        </notations>
      </note>
      <note color="#FF0000" default-x="158.59" default-y="0">
        <pitch>
          <step>E</step>
          <alter>-1</alter>
          <octave>5</octave>
        </pitch>
        <duration>2520</duration>
        <type>16th</type>
        <accidental>flat</accidental>
        <stem>down</stem>
        <notehead color="#FF0000" parentheses="no">normal</notehead>
        <beam number="1">end</beam>
        <beam number="2">backward hook</beam>
      </note>
      <note color="#FF0000" default-x="179.89" default-y="-5">
        <pitch>
          <step>D</step>
          <alter>1</alter>
          <octave>5</octave>
        </pitch>
        <duration>5040</duration>
        <type>eighth</type>
        <accidental>sharp</accidental>
        <stem>down</stem>
        <notehead color="#FF0000" parentheses="no">normal</notehead>
        <beam number="1">begin</beam>
      </note>
      <note color="#FF0000" default-x="213.99" default-y="-10">
        <pitch>
          <step>C</step>
          <alter>1</alter>
          <octave>5</octave>
        </pitch>
        <duration>2520</duration>
        <type>16th</type>
        <accidental>sharp</accidental>
        <stem>down</stem>
        <notehead color="#FF0000" parentheses="no">normal</notehead>
        <beam number="1">end</beam>
        <beam number="2">backward hook</beam>
        <notations>
          <slur number="3" type="stop" />
        </notations>
      </note>
      <direction placement="below">
        <direction-type>
          <wedge number="1" spread="15" type="stop" />
        </direction-type>
      </direction>
    </measure>
    <!--========================= Measure 5 ==========================-->
    <measure number="5" width="342.25">
      <print new-system="yes">
        <system-layout>
          <system-margins>
            <left-margin>0</left-margin>
            <right-margin>0</right-margin>
          </system-margins>
          <system-distance>150</system-distance>
        </system-layout>
      </print>
      <direction placement="below">
        <direction-type>
          <dynamics default-x="3.25" default-y="-41.53" relative-y="-25">
            <p />
          </dynamics>
        </direction-type>
        <sound dynamics="44" />
      </direction>
      <note color="#FF0000" default-x="126.71" default-y="-15">
        <pitch>
          <step>B</step>
          <alter>-1</alter>
          <octave>4</octave>
        </pitch>
        <duration>7560</duration>
        <tie type="start" />
        <type>eighth</type>
        <dot />
        <stem>down</stem>
        <notehead color="#FF0000" parentheses="no">normal</notehead>
        <notations>
          <tied type="start" />
        </notations>
      </note>
      <note color="#FF0000" default-x="156.08" default-y="-15">
        <pitch>
          <step>B</step>
          <alter>-1</alter>
          <octave>4</octave>
        </pitch>
        <duration>2520</duration>
        <tie type="stop" />
        <type>16th</type>
        <stem>down</stem>
        <notehead color="#FF0000" parentheses="no">normal</notehead>
        <beam number="1">begin</beam>
        <beam number="2">begin</beam>
        <notations>
          <tied type="stop" />
          <slur number="4" placement="above" type="start" />
        </notations>
      </note>
      <note color="#FF0000" default-x="176.59" default-y="-10">
        <pitch>
          <step>C</step>
          <alter>1</alter>
          <octave>5</octave>
        </pitch>
        <duration>2520</duration>
        <type>16th</type>
        <accidental>sharp</accidental>
        <stem>down</stem>
        <notehead color="#FF0000" parentheses="no">normal</notehead>
        <beam number="1">continue</beam>
        <beam number="2">continue</beam>
      </note>
      <note color="#FF0000" default-x="197.09" default-y="-5">
        <pitch>
          <step>D</step>
          <alter>1</alter>
          <octave>5</octave>
        </pitch>
        <duration>1260</duration>
        <type>32nd</type>
        <accidental>sharp</accidental>
        <stem>down</stem>
        <notehead color="#FF0000" parentheses="no">normal</notehead>
        <beam number="1">continue</beam>
        <beam number="2">continue</beam>
        <beam number="3">begin</beam>
      </note>
      <note color="#FF0000" default-x="212.09" default-y="-10">
        <pitch>
          <step>C</step>
          <alter>1</alter>
          <octave>5</octave>
        </pitch>
        <duration>630</duration>
        <type>64th</type>
        <accidental>sharp</accidental>
        <stem>down</stem>
        <notehead color="#FF0000" parentheses="no">normal</notehead>
        <beam number="1">continue</beam>
        <beam number="2">continue</beam>
        <beam number="3">continue</beam>
        <beam number="4">begin</beam>
      </note>
      <direction placement="below">
        <direction-type>
          <wedge number="2" spread="0" type="crescendo" />
        </direction-type>
      </direction>
      <note color="#FF0000" default-x="227.08" default-y="-15">
        <pitch>
          <step>B</step>
          <alter>-1</alter>
          <octave>4</octave>
        </pitch>
        <duration>630</duration>
        <type>64th</type>
        <stem>down</stem>
        <notehead color="#FF0000" parentheses="no">normal</notehead>
        <beam number="1">end</beam>
        <beam number="2">end</beam>
        <beam number="3">end</beam>
        <beam number="4">end</beam>
        <notations>
          <slur number="4" type="stop" />
        </notations>
      </note>
      <note color="#FF0000" default-x="242.08" default-y="-20">
        <pitch>
          <step>A</step>
          <alter>1</alter>
          <octave>4</octave>
        </pitch>
        <duration>7560</duration>
        <tie type="start" />
        <type>eighth</type>
        <dot />
        <accidental>sharp</accidental>
        <stem>down</stem>
        <notehead color="#FF0000" parentheses="no">normal</notehead>
        <notations>
          <tied type="start" />
        </notations>
      </note>
      <direction placement="below">
        <direction-type>
          <wedge number="2" spread="15" type="stop" />
        </direction-type>
      </direction>
      <direction placement="below">
        <direction-type>
          <wedge number="3" spread="15" type="diminuendo" />
        </direction-type>
      </direction>
      <note color="#FF0000" default-x="271.45" default-y="-20">
        <pitch>
          <step>A</step>
          <alter>1</alter>
          <octave>4</octave>
        </pitch>
        <duration>2520</duration>
        <tie type="stop" />
        <type>16th</type>
        <accidental>sharp</accidental>
        <stem>down</stem>
        <notehead color="#FF0000" parentheses="no">normal</notehead>
        <beam number="1">begin</beam>
        <beam number="2">begin</beam>
        <notations>
          <tied type="stop" />
        </notations>
      </note>
      <note color="#FF0000" default-x="291.95" default-y="-15">
        <pitch>
          <step>B</step>
          <alter>-1</alter>
          <octave>4</octave>
        </pitch>
        <duration>2520</duration>
        <type>16th</type>
        <stem>down</stem>
        <notehead color="#FF0000" parentheses="no">normal</notehead>
        <beam number="1">continue</beam>
        <beam number="2">continue</beam>
      </note>
      <note color="#FF0000" default-x="312.46" default-y="-10">
        <pitch>
          <step>C</step>
          <alter>1</alter>
          <octave>5</octave>
        </pitch>
        <duration>2520</duration>
        <type>16th</type>
        <accidental>sharp</accidental>
        <stem>down</stem>
        <notehead color="#FF0000" parentheses="no">normal</notehead>
        <beam number="1">end</beam>
        <beam number="2">end</beam>
      </note>
      <direction placement="below">
        <direction-type>
          <wedge number="3" spread="0" type="stop" />
        </direction-type>
      </direction>
    </measure>
    <!--========================= Measure 6 ==========================-->
    <measure number="6" width="88.5">
      <direction placement="below">
        <direction-type>
          <words default-y="-80.17" enclosure="none" font-family="Edwin" font-size="10" font-style="italic">cresc.</words>
        </direction-type>
      </direction>
      <direction placement="below">
        <direction-type>
          <dynamics default-x="3.25" default-y="-55.17" relative-y="-25">
            <p />
          </dynamics>
        </direction-type>
        <sound dynamics="44" />
      </direction>
      <direction placement="above">
        <direction-type>
          <bracket line-end="none" line-type="dashed" number="1" type="start" />
        </direction-type>
      </direction>
      <note color="#FF0000" default-x="13" default-y="-15">
        <pitch>
          <step>B</step>
          <alter>-1</alter>
          <octave>4</octave>
        </pitch>
        <duration>15120</duration>
        <type>quarter</type>
        <dot />
        <stem>down</stem>
        <notehead color="#FF0000" parentheses="no">normal</notehead>
        <notations>
          <slur number="5" placement="above" type="start" />
        </notations>
      </note>
      <note color="#FF0000" default-x="49.7" default-y="-10">
        <pitch>
          <step>C</step>
          <alter>1</alter>
          <octave>5</octave>
        </pitch>
        <duration>15120</duration>
        <type>quarter</type>
        <dot />
        <accidental>sharp</accidental>
        <stem>down</stem>
        <notehead color="#FF0000" parentheses="no">normal</notehead>
      </note>
      <direction placement="above">
        <direction-type>
          <bracket line-end="none" line-type="dashed" number="1" type="stop" />
        </direction-type>
      </direction>
    </measure>
    <!--========================= Measure 7 ==========================-->
    <measure number="7" width="130.83">
      <note color="#FF0000" default-x="13" default-y="-5">
        <pitch>
          <step>D</step>
          <alter>1</alter>
          <octave>5</octave>
        </pitch>
        <duration>15120</duration>
        <type>quarter</type>
        <dot />
        <accidental>sharp</accidental>
        <stem>down</stem>
        <notehead color="#FF0000" parentheses="no">normal</notehead>
      </note>
      <note color="#FF0000" default-x="61.64" default-y="0">
        <pitch>
          <step>E</step>
          <alter>-1</alter>
          <octave>5</octave>
        </pitch>
        <duration>7560</duration>
        <type>eighth</type>
        <dot />
        <accidental>flat</accidental>
        <stem>down</stem>
        <notehead color="#FF0000" parentheses="no">normal</notehead>
        <beam number="1">begin</beam>
      </note>
      <note color="#FF0000" default-x="92.04" default-y="10">
        <pitch>
          <step>G</step>
          <alter>1</alter>
          <octave>5</octave>
        </pitch>
        <duration>7560</duration>
        <type>eighth</type>
        <dot />
        <accidental>sharp</accidental>
        <stem>down</stem>
        <notehead color="#FF0000" parentheses="no">normal</notehead>
        <beam number="1">end</beam>
      </note>
    </measure>
    <!--========================= Measure 8 ==========================-->
    <measure number="8" width="286.41">
      <note color="#FF0000" default-x="13" default-y="5">
        <pitch>
          <step>F</step>
          <alter>1</alter>
          <octave>5</octave>
        </pitch>
        <duration>5040</duration>
        <type>eighth</type>
        <accidental>sharp</accidental>
        <stem>down</stem>
        <notehead color="#FF0000" parentheses="no">normal</notehead>
        <beam number="1">begin</beam>
      </note>
      <note color="#FF0000" default-x="44.98" default-y="20">
        <pitch>
          <step>B</step>
          <alter>-1</alter>
          <octave>5</octave>
        </pitch>
        <duration>2520</duration>
        <type>16th</type>
        <stem>down</stem>
        <notehead color="#FF0000" parentheses="no">normal</notehead>
        <beam number="1">end</beam>
        <beam number="2">backward hook</beam>
      </note>
      <note color="#FF0000" default-x="68.25" default-y="10">
        <pitch>
          <step>G</step>
          <alter>1</alter>
          <octave>5</octave>
        </pitch>
        <duration>5040</duration>
        <type>eighth</type>
        <accidental>sharp</accidental>
        <stem>down</stem>
        <notehead color="#FF0000" parentheses="no">normal</notehead>
        <beam number="1">begin</beam>
      </note>
      <note color="#FF0000" default-x="100.23" default-y="45">
        <pitch>
          <step>G</step>
          <alter>1</alter>
          <octave>6</octave>
        </pitch>
        <duration>2520</duration>
        <tie type="start" />
        <type>16th</type>
        <accidental>sharp</accidental>
        <stem>down</stem>
        <notehead color="#FF0000" parentheses="no">normal</notehead>
        <beam number="1">end</beam>
        <beam number="2">backward hook</beam>
        <notations>
          <tied type="start" />
          <slur number="5" type="stop" />
        </notations>
      </note>
      <note color="#FF0000" default-x="123.49" default-y="45">
        <pitch>
          <step>G</step>
          <alter>1</alter>
          <octave>6</octave>
        </pitch>
        <duration>5040</duration>
        <tie type="stop" />
        <type>eighth</type>
        <accidental>sharp</accidental>
        <stem>down</stem>
        <notehead color="#FF0000" parentheses="no">normal</notehead>
        <beam number="1">begin</beam>
        <notations>
          <tied type="stop" />
          <slur number="6" placement="above" type="start" />
        </notations>
      </note>
      <note color="#FF0000" default-x="155.48" default-y="40">
        <pitch>
          <step>F</step>
          <alter>1</alter>
          <octave>6</octave>
        </pitch>
        <duration>2520</duration>
        <tie type="start" />
        <type>16th</type>
        <accidental>sharp</accidental>
        <stem>down</stem>
        <notehead color="#FF0000" parentheses="no">normal</notehead>
        <beam number="1">end</beam>
        <beam number="2">backward hook</beam>
        <notations>
          <tied type="start" />
        </notations>
      </note>
      <direction placement="below">
        <direction-type>
          <words default-y="-80" enclosure="none" font-family="Edwin" font-size="10" font-style="italic">dim.</words>
        </direction-type>
      </direction>
      <direction placement="above">
        <direction-type>
          <bracket line-end="none" line-type="dashed" number="2" type="start" />
        </direction-type>
      </direction>
      <note color="#FF0000" default-x="178.74" default-y="40">
        <pitch>
          <step>F</step>
          <alter>1</alter>
          <octave>6</octave>
        </pitch>
        <duration>2520</duration>
        <tie type="stop" />
        <type>16th</type>
        <accidental>sharp</accidental>
        <stem>down</stem>
        <notehead color="#FF0000" parentheses="no">normal</notehead>
        <beam number="1">begin</beam>
        <beam number="2">begin</beam>
        <notations>
          <tied type="stop" />
        </notations>
      </note>
      <note color="#FF0000" default-x="202" default-y="30">
        <pitch>
          <step>D</step>
          <alter>1</alter>
          <octave>6</octave>
        </pitch>
        <duration>2520</duration>
        <type>16th</type>
        <accidental>sharp</accidental>
        <stem>down</stem>
        <notehead color="#FF0000" parentheses="no">normal</notehead>
        <beam number="1">continue</beam>
        <beam number="2">continue</beam>
      </note>
      <note color="#FF0000" default-x="234.62" default-y="35">
        <pitch>
          <step>E</step>
          <alter>-1</alter>
          <octave>6</octave>
        </pitch>
        <duration>1260</duration>
        <type>32nd</type>
        <accidental>flat</accidental>
        <stem>down</stem>
        <notehead color="#FF0000" parentheses="no">normal</notehead>
        <beam number="1">continue</beam>
        <beam number="2">continue</beam>
        <beam number="3">begin</beam>
      </note>
      <note color="#FF0000" default-x="256.61" default-y="15">
        <pitch>
          <step>A</step>
          <alter>1</alter>
          <octave>5</octave>
        </pitch>
        <duration>1260</duration>
        <type>32nd</type>
        <accidental>sharp</accidental>
        <stem>down</stem>
        <notehead color="#FF0000" parentheses="no">normal</notehead>
        <beam number="1">end</beam>
        <beam number="2">end</beam>
        <beam number="3">end</beam>
        <notations>
          <slur number="6" type="stop" />
        </notations>
      </note>
      <direction placement="above">
        <direction-type>
          <bracket line-end="none" line-type="dashed" number="2" type="stop" />
        </direction-type>
      </direction>
    </measure>
    <!--========================= Measure 9 ==========================-->
    <measure number="9" width="119.59">
      <note color="#FF0000" default-x="16.5" default-y="25">
        <pitch>
          <step>C</step>
          <alter>1</alter>
          <octave>6</octave>
        </pitch>
        <duration>15120</duration>
        <type>quarter</type>
        <dot />
        <accidental>sharp</accidental>
        <stem>down</stem>
        <notehead color="#FF0000" parentheses="no">normal</notehead>
        <notations>
          <slur number="1" placement="above" type="start" />
        </notations>
      </note>
      <note color="#FF0000" default-x="56.07" default-y="20">
        <pitch>
          <step>B</step>
          <alter>-1</alter>
          <octave>5</octave>
        </pitch>
        <duration>7560</duration>
        <type>eighth</type>
        <dot />
        <stem>down</stem>
        <notehead color="#FF0000" parentheses="no">normal</notehead>
        <notations>
          <slur number="1" type="stop" />
        </notations>
      </note>
      <note color="#FF0000" default-x="80.79" default-y="-5">
        <pitch>
          <step>D</step>
          <alter>1</alter>
          <octave>5</octave>
        </pitch>
        <duration>7560</duration>
        <tie type="start" />
        <type>eighth</type>
        <dot />
        <accidental>sharp</accidental>
        <stem>down</stem>
        <notehead color="#FF0000" parentheses="no">normal</notehead>
        <notations>
          <tied type="start" />
        </notations>
      </note>
    </measure>
    <!--========================= Measure 10 =========================-->
    <measure number="10" width="306.48">
      <print new-system="yes">
        <system-layout>
          <system-margins>
            <left-margin>0</left-margin>
            <right-margin>0</right-margin>
          </system-margins>
          <system-distance>150</system-distance>
        </system-layout>
      </print>
      <note color="#FF0000" default-x="126.71" default-y="-5">
        <pitch>
          <step>D</step>
          <alter>1</alter>
          <octave>5</octave>
        </pitch>
        <duration>7560</duration>
        <tie type="stop" />
        <type>eighth</type>
        <dot />
        <accidental>sharp</accidental>
        <stem>down</stem>
        <notehead color="#FF0000" parentheses="no">normal</notehead>
        <beam number="1">begin</beam>
        <notations>
          <tied type="stop" />
          <slur number="2" placement="above" type="start" />
        </notations>
      </note>
      <note color="#FF0000" default-x="170.24" default-y="-20">
        <pitch>
          <step>A</step>
          <alter>0</alter>
          <octave>4</octave>
        </pitch>
        <duration>7560</duration>
        <type>eighth</type>
        <dot />
        <accidental>natural</accidental>
        <stem>down</stem>
        <notehead color="#FF0000" parentheses="no">normal</notehead>
        <beam number="1">continue</beam>
      </note>
      <note color="#FF0000" default-x="207.99" default-y="-25">
        <pitch>
          <step>G</step>
          <alter>1</alter>
          <octave>4</octave>
        </pitch>
        <duration>7560</duration>
        <type>eighth</type>
        <dot />
        <accidental>sharp</accidental>
        <stem>down</stem>
        <notehead color="#FF0000" parentheses="no">normal</notehead>
        <beam number="1">end</beam>
      </note>
      <note color="#FF0000" default-x="245.73" default-y="5">
        <pitch>
          <step>F</step>
          <alter>1</alter>
          <octave>5</octave>
        </pitch>
        <duration>5040</duration>
        <type>eighth</type>
        <accidental>sharp</accidental>
        <stem>down</stem>
        <notehead color="#FF0000" parentheses="no">normal</notehead>
        <beam number="1">begin</beam>
      </note>
      <note color="#FF0000" default-x="276.68" default-y="-5">
        <pitch>
          <step>D</step>
          <alter>1</alter>
          <octave>5</octave>
        </pitch>
        <duration>2520</duration>
        <type>16th</type>
        <accidental>sharp</accidental>
        <stem>down</stem>
        <notehead color="#FF0000" parentheses="no">normal</notehead>
        <beam number="1">end</beam>
        <beam number="2">backward hook</beam>
        <notations>
          <slur number="2" type="stop" />
        </notations>
      </note>
    </measure>
    <!--========================= Measure 11 =========================-->
    <measure number="11" width="179.18">
      <note color="#FF0000" default-x="13" default-y="5">
        <pitch>
          <step>F</step>
          <alter>1</alter>
          <octave>5</octave>
        </pitch>
        <duration>7560</duration>
        <type>eighth</type>
        <dot />
        <accidental>sharp</accidental>
        <stem>down</stem>
        <notehead color="#FF0000" parentheses="no">normal</notehead>
        <beam number="1">begin</beam>
        <notations>
          <slur number="3" placement="above" type="start" />
        </notations>
      </note>
      <note color="#FF0000" default-x="54.09" default-y="0">
        <pitch>
          <step>E</step>
          <alter>-1</alter>
          <octave>5</octave>
        </pitch>
        <duration>7560</duration>
        <tie type="start" />
        <type>eighth</type>
        <dot />
        <accidental>flat</accidental>
        <stem>down</stem>
        <notehead color="#FF0000" parentheses="no">normal</notehead>
        <beam number="1">end</beam>
        <notations>
          <tied type="start" />
        </notations>
      </note>
      <direction placement="below">
        <direction-type>
          <words default-y="-80" enclosure="none" font-family="Edwin" font-size="10" font-style="italic">cresc.</words>
        </direction-type>
      </direction>
      <direction placement="above">
        <direction-type>
          <bracket line-end="none" line-type="dashed" number="3" type="start" />
        </direction-type>
      </direction>
      <note color="#FF0000" default-x="95.19" default-y="0">
        <pitch>
          <step>E</step>
          <alter>-1</alter>
          <octave>5</octave>
        </pitch>
        <duration>7560</duration>
        <tie type="stop" />
        <type>eighth</type>
        <dot />
        <stem>down</stem>
        <notehead color="#FF0000" parentheses="no">normal</notehead>
        <beam number="1">begin</beam>
        <notations>
          <tied type="stop" />
        </notations>
      </note>
      <note color="#FF0000" default-x="136.28" default-y="-5">
        <pitch>
          <step>D</step>
          <alter>1</alter>
          <octave>5</octave>
        </pitch>
        <duration>7560</duration>
        <tie type="start" />
        <type>eighth</type>
        <dot />
        <accidental>sharp</accidental>
        <stem>down</stem>
        <notehead color="#FF0000" parentheses="no">normal</notehead>
        <beam number="1">end</beam>
        <notations>
          <tied type="start" />
          <slur number="3" type="stop" />
        </notations>
      </note>
      <direction placement="above">
        <direction-type>
          <bracket line-end="none" line-type="dashed" number="3" type="stop" />
        </direction-type>
      </direction>
    </measure>
    <!--========================= Measure 12 =========================-->
    <measure number="12" width="211.36">
      <note color="#FF0000" default-x="13" default-y="-5">
        <pitch>
          <step>D</step>
          <alter>1</alter>
          <octave>5</octave>
        </pitch>
        <duration>5040</duration>
        <tie type="stop" />
        <type>eighth</type>
        <accidental>sharp</accidental>
        <stem>down</stem>
        <notehead color="#FF0000" parentheses="no">normal</notehead>
        <beam number="1">begin</beam>
        <notations>
          <tied type="stop" />
          <slur number="4" placement="above" type="start" />
        </notations>
      </note>
      <note color="#FF0000" default-x="40.52" default-y="-10">
        <pitch>
          <step>C</step>
          <alter>1</alter>
          <octave>5</octave>
        </pitch>
        <duration>2520</duration>
        <tie type="start" />
        <type>16th</type>
        <accidental>sharp</accidental>
        <stem>down</stem>
        <notehead color="#FF0000" parentheses="no">normal</notehead>
        <beam number="1">end</beam>
        <beam number="2">backward hook</beam>
        <notations>
          <tied type="start" />
        </notations>
      </note>
      <note color="#FF0000" default-x="57.72" default-y="-10">
        <pitch>
          <step>C</step>
          <alter>1</alter>
          <octave>5</octave>
        </pitch>
        <duration>5040</duration>
        <tie type="stop" />
        <type>eighth</type>
        <accidental>sharp</accidental>
        <stem>down</stem>
        <notehead color="#FF0000" parentheses="no">normal</notehead>
        <beam number="1">begin</beam>
        <notations>
          <tied type="stop" />
        </notations>
      </note>
      <note color="#FF0000" default-x="85.24" default-y="-15">
        <pitch>
          <step>B</step>
          <alter>-1</alter>
          <octave>4</octave>
        </pitch>
        <duration>2520</duration>
        <tie type="start" />
        <type>16th</type>
        <stem>down</stem>
        <notehead color="#FF0000" parentheses="no">normal</notehead>
        <beam number="1">end</beam>
        <beam number="2">backward hook</beam>
        <notations>
          <tied type="start" />
          <slur number="4" type="stop" />
        </notations>
      </note>
      <note color="#FF0000" default-x="102.44" default-y="-15">
        <pitch>
          <step>B</step>
          <alter>-1</alter>
          <octave>4</octave>
        </pitch>
        <duration>5040</duration>
        <tie type="stop" />
        <type>eighth</type>
        <stem>down</stem>
        <notehead color="#FF0000" parentheses="no">normal</notehead>
        <beam number="1">begin</beam>
        <notations>
          <tied type="stop" />
          <slur number="5" placement="above" type="start" />
        </notations>
      </note>
      <note color="#FF0000" default-x="129.96" default-y="-20">
        <pitch>
          <step>A</step>
          <alter>1</alter>
          <octave>4</octave>
        </pitch>
        <duration>2520</duration>
        <tie type="start" />
        <type>16th</type>
        <accidental>sharp</accidental>
        <stem>down</stem>
        <notehead color="#FF0000" parentheses="no">normal</notehead>
        <beam number="1">end</beam>
        <beam number="2">backward hook</beam>
        <notations>
          <tied type="start" />
        </notations>
      </note>
      <direction placement="below">
        <direction-type>
          <wedge number="4" spread="15" type="diminuendo" />
        </direction-type>
      </direction>
      <note color="#FF0000" default-x="147.16" default-y="-20">
        <pitch>
          <step>A</step>
          <alter>1</alter>
          <octave>4</octave>
        </pitch>
        <duration>2520</duration>
        <tie type="stop" />
        <type>16th</type>
        <accidental>sharp</accidental>
        <stem>down</stem>
        <notehead color="#FF0000" parentheses="no">normal</notehead>
        <beam number="1">begin</beam>
        <beam number="2">begin</beam>
        <notations>
          <tied type="stop" />
          <slur number="6" placement="above" type="start" />
        </notations>
      </note>
      <note color="#FF0000" default-x="164.36" default-y="-15">
        <pitch>
          <step>B</step>
          <alter>-1</alter>
          <octave>4</octave>
        </pitch>
        <duration>2520</duration>
        <type>16th</type>
        <stem>down</stem>
        <notehead color="#FF0000" parentheses="no">normal</notehead>
        <beam number="1">continue</beam>
        <beam number="2">continue</beam>
        <notations>
          <slur number="6" type="stop" />
        </notations>
      </note>
      <note color="#FF0000" default-x="181.56" default-y="-25">
        <pitch>
          <step>G</step>
          <alter>1</alter>
          <octave>4</octave>
        </pitch>
        <duration>2520</duration>
        <type>16th</type>
        <accidental>sharp</accidental>
        <stem>down</stem>
        <notehead color="#FF0000" parentheses="no">normal</notehead>
        <beam number="1">end</beam>
        <beam number="2">end</beam>
        <notations>
          <slur number="5" type="stop" />
          <articulations>
            <staccato />
          </articulations>
        </notations>
      </note>
      <direction placement="below">
        <direction-type>
          <wedge number="4" spread="0" type="stop" />
        </direction-type>
      </direction>
    </measure>
    <!--========================= Measure 13 =========================-->
    <measure number="13" width="149.08">
      <note color="#FF0000" default-x="13" default-y="-25">
        <pitch>
          <step>G</step>
          <alter>1</alter>
          <octave>4</octave>
        </pitch>
        <duration>15120</duration>
        <type>quarter</type>
        <dot />
        <accidental>sharp</accidental>
        <stem>up</stem>
        <notehead color="#FF0000" parentheses="no">normal</notehead>
        <notations>
          <slur number="1" placement="below" type="start" />
        </notations>
      </note>
      <note default-x="72.68" default-y="-30">
        <pitch>
          <step>G</step>
          <alter>0</alter>
          <octave>4</octave>
        </pitch>
        <duration>7560</duration>
        <type>eighth</type>
        <dot />
        <accidental>natural</accidental>
        <stem>up</stem>
        <beam number="1">begin</beam>
      </note>
      <note color="#FF0000" default-x="109.98" default-y="-40">
        <pitch>
          <step>D</step>
          <alter>1</alter>
          <octave>4</octave>
        </pitch>
        <duration>7560</duration>
        <type>eighth</type>
        <dot />
        <accidental>sharp</accidental>
        <stem>up</stem>
        <notehead color="#FF0000" parentheses="no">normal</notehead>
        <beam number="1">end</beam>
        <notations>
          <slur number="1" type="stop" />
        </notations>
      </note>
    </measure>
    <!--========================= Measure 14 =========================-->
    <measure number="14" width="121.48">
      <note color="#FF0000" default-x="13" default-y="-25">
        <pitch>
          <step>G</step>
          <alter>1</alter>
          <octave>4</octave>
        </pitch>
        <duration>15120</duration>
        <type>quarter</type>
        <dot />
        <accidental>sharp</accidental>
        <stem>up</stem>
        <notehead color="#FF0000" parentheses="no">normal</notehead>
        <notations>
          <slur number="2" placement="below" type="start" />
        </notations>
      </note>
      <note default-x="66.34" default-y="-30">
        <pitch>
          <step>G</step>
          <alter>0</alter>
          <octave>4</octave>
        </pitch>
        <duration>15120</duration>
        <type>quarter</type>
        <dot />
        <accidental>natural</accidental>
        <stem>up</stem>
        <notations>
          <slur number="2" type="stop" />
        </notations>
      </note>
    </measure>
    <!--========================= Measure 15 =========================-->
    <measure number="15" width="249.8">
      <print new-system="yes">
        <system-layout>
          <system-margins>
            <left-margin>0</left-margin>
            <right-margin>0</right-margin>
          </system-margins>
          <system-distance>150</system-distance>
        </system-layout>
      </print>
      <note color="#FF0000" default-x="126.71" default-y="-15">
        <pitch>
          <step>B</step>
          <alter>-1</alter>
          <octave>4</octave>
        </pitch>
        <duration>15120</duration>
        <type>quarter</type>
        <dot />
        <stem>down</stem>
        <notehead color="#FF0000" parentheses="no">normal</notehead>
        <notations>
          <slur number="3" placement="above" type="start" />
        </notations>
      </note>
      <note color="#FF0000" default-x="175.48" default-y="-20">
        <pitch>
          <step>A</step>
          <alter>1</alter>
          <octave>4</octave>
        </pitch>
        <duration>7560</duration>
        <type>eighth</type>
        <dot />
        <accidental>sharp</accidental>
        <stem>down</stem>
        <notehead color="#FF0000" parentheses="no">normal</notehead>
        <beam number="1">begin</beam>
      </note>
      <note default-x="211.01" default-y="-15">
        <pitch>
          <step>C</step>
          <alter>0</alter>
          <octave>5</octave>
        </pitch>
        <duration>7560</duration>
        <type>eighth</type>
        <dot />
        <accidental>natural</accidental>
        <stem>down</stem>
        <beam number="1">end</beam>
        <notations>
          <slur number="3" type="stop" />
        </notations>
      </note>
    </measure>
    <!--========================= Measure 16 =========================-->
    <measure number="16" width="218.45">
      <note color="#FF0000" default-x="13" default-y="-10">
        <pitch>
          <step>C</step>
          <alter>1</alter>
          <octave>5</octave>
        </pitch>
        <duration>7560</duration>
        <tie type="start" />
        <type>eighth</type>
        <dot />
        <accidental>sharp</accidental>
        <stem>down</stem>
        <notehead color="#FF0000" parentheses="no">normal</notehead>
        <beam number="1">begin</beam>
        <notations>
          <tied type="start" />
        </notations>
      </note>
      <note color="#FF0000" default-x="48.38" default-y="-10">
        <pitch>
          <step>C</step>
          <alter>1</alter>
          <octave>5</octave>
        </pitch>
        <duration>2520</duration>
        <tie type="stop" />
        <type>16th</type>
        <accidental>sharp</accidental>
        <stem>down</stem>
        <notehead color="#FF0000" parentheses="no">normal</notehead>
        <beam number="1">continue</beam>
        <beam number="2">begin</beam>
        <notations>
          <tied type="stop" />
        </notations>
      </note>
      <note color="#FF0000" default-x="66.52" default-y="-5">
        <pitch>
          <step>D</step>
          <alter>1</alter>
          <octave>5</octave>
        </pitch>
        <duration>2520</duration>
        <type>16th</type>
        <accidental>sharp</accidental>
        <stem>down</stem>
        <notehead color="#FF0000" parentheses="no">normal</notehead>
        <beam number="1">continue</beam>
        <beam number="2">continue</beam>
        <notations>
          <slur number="4" placement="above" type="start" />
          <articulations>
            <staccato />
          </articulations>
        </notations>
      </note>
      <note color="#FF0000" default-x="94.34" default-y="0">
        <pitch>
          <step>E</step>
          <alter>-1</alter>
          <octave>5</octave>
        </pitch>
        <duration>2520</duration>
        <type>16th</type>
        <accidental>flat</accidental>
        <stem>down</stem>
        <notehead color="#FF0000" parentheses="no">normal</notehead>
        <beam number="1">end</beam>
        <beam number="2">end</beam>
        <notations>
          <slur number="4" type="stop" />
          <articulations>
            <staccato />
          </articulations>
        </notations>
      </note>
      <note color="#FF0000" default-x="112.47" default-y="0">
        <pitch>
          <step>E</step>
          <alter>-1</alter>
          <octave>5</octave>
        </pitch>
        <duration>5040</duration>
        <type>eighth</type>
        <stem>down</stem>
        <notehead color="#FF0000" parentheses="no">normal</notehead>
        <beam number="1">begin</beam>
        <notations>
          <slur number="5" placement="above" type="start" />
        </notations>
      </note>
      <note color="#FF0000" default-x="141.49" default-y="-5">
        <pitch>
          <step>D</step>
          <alter>1</alter>
          <octave>5</octave>
        </pitch>
        <duration>2520</duration>
        <tie type="start" />
        <type>16th</type>
        <accidental>sharp</accidental>
        <stem>down</stem>
        <notehead color="#FF0000" parentheses="no">normal</notehead>
        <beam number="1">continue</beam>
        <beam number="2">forward hook</beam>
        <notations>
          <tied type="start" />
        </notations>
      </note>
      <note color="#FF0000" default-x="159.63" default-y="-5">
        <pitch>
          <step>D</step>
          <alter>1</alter>
          <octave>5</octave>
        </pitch>
        <duration>5040</duration>
        <tie type="stop" />
        <type>eighth</type>
        <accidental>sharp</accidental>
        <stem>down</stem>
        <notehead color="#FF0000" parentheses="no">normal</notehead>
        <beam number="1">continue</beam>
        <notations>
          <tied type="stop" />
        </notations>
      </note>
      <note default-x="188.65" default-y="-30">
        <pitch>
          <step>G</step>
          <alter>0</alter>
          <octave>4</octave>
        </pitch>
        <duration>2520</duration>
        <type>16th</type>
        <accidental>natural</accidental>
        <stem>down</stem>
        <beam number="1">end</beam>
        <beam number="2">backward hook</beam>
        <notations>
          <slur number="5" type="stop" />
        </notations>
      </note>
    </measure>
    <!--========================= Measure 17 =========================-->
    <measure number="17" width="165.83">
      <note color="#FF0000" default-x="13" default-y="-20">
        <pitch>
          <step>A</step>
          <alter>1</alter>
          <octave>4</octave>
        </pitch>
        <duration>15120</duration>
        <type>quarter</type>
        <dot />
        <accidental>sharp</accidental>
        <stem>down</stem>
        <notehead color="#FF0000" parentheses="no">normal</notehead>
        <notations>
          <slur number="6" placement="above" type="start" />
        </notations>
      </note>
      <note color="#FF0000" default-x="57.07" default-y="-25">
        <pitch>
          <step>G</step>
          <alter>1</alter>
          <octave>4</octave>
        </pitch>
        <duration>7560</duration>
        <type>eighth</type>
        <dot />
        <accidental>sharp</accidental>
        <stem>up</stem>
        <notehead color="#FF0000" parentheses="no">normal</notehead>
        <notations>
          <slur number="6" type="stop" />
        </notations>
      </note>
      <attributes>
        <clef>
          <sign>F</sign>
          <line>4</line>
        </clef>
      </attributes>
      <note print-object="no" print-spacing="yes">
        <rest />
        <duration>2520</duration>
        <type>16th</type>
      </note>
      <direction placement="below">
        <direction-type>
          <words default-y="-80" enclosure="none" font-family="Edwin" font-size="10" font-style="italic">dim.</words>
        </direction-type>
        <offset>-2520</offset>
      </direction>
      <direction placement="above">
        <direction-type>
          <bracket line-end="none" line-type="dashed" number="4" type="start" />
        </direction-type>
      </direction>
      <note color="#FF0000" default-x="127.03" default-y="10">
        <pitch>
          <step>B</step>
          <alter>-1</alter>
          <octave>3</octave>
        </pitch>
        <duration>7560</duration>
        <type>eighth</type>
        <dot />
        <stem>down</stem>
        <notehead color="#FF0000" parentheses="no">normal</notehead>
      </note>
      <direction placement="above">
        <direction-type>
          <bracket line-end="none" line-type="dashed" number="4" type="stop" />
        </direction-type>
      </direction>
    </measure>
    <!--========================= Measure 18 =========================-->
    <measure number="18" width="205.49">
      <note color="#FF0000" default-x="26.04" default-y="5">
        <pitch>
          <step>A</step>
          <alter>0</alter>
          <octave>3</octave>
        </pitch>
        <duration>7560</duration>
        <type>eighth</type>
        <dot />
        <accidental>natural</accidental>
        <stem>down</stem>
        <notehead color="#FF0000" parentheses="no">normal</notehead>
        <beam number="1">begin</beam>
      </note>
      <note color="#FF0000" default-x="73.07" default-y="20">
        <pitch>
          <step>D</step>
          <alter>0</alter>
          <octave>4</octave>
        </pitch>
        <duration>7560</duration>
        <type>eighth</type>
        <dot />
        <accidental>natural</accidental>
        <stem>down</stem>
        <notehead color="#FF0000" parentheses="no">normal</notehead>
        <beam number="1">continue</beam>
      </note>
      <note color="#FF0000" default-x="105.38" default-y="0">
        <pitch>
          <step>G</step>
          <alter>1</alter>
          <octave>3</octave>
        </pitch>
        <duration>5040</duration>
        <type>eighth</type>
        <accidental>sharp</accidental>
        <stem>down</stem>
        <notehead color="#FF0000" parentheses="no">normal</notehead>
        <beam number="1">end</beam>
      </note>
      <note>
        <rest />
        <duration>2520</duration>
        <type>16th</type>
      </note>
      <direction placement="below">
        <direction-type>
          <dynamics default-x="3.25" default-y="-40" relative-y="-25">
            <pp />
          </dynamics>
        </direction-type>
        <sound dynamics="31" />
      </direction>
      <note color="#FF0000" default-x="148.44" default-y="0">
        <pitch>
          <step>G</step>
          <alter>1</alter>
          <octave>3</octave>
        </pitch>
        <duration>5040</duration>
        <type>eighth</type>
        <accidental>sharp</accidental>
        <stem>down</stem>
        <notehead color="#FF0000" parentheses="no">normal</notehead>
      </note>
      <note>
        <rest />
        <duration>2520</duration>
        <type>16th</type>
      </note>
    </measure>
    <!--========================= Measure 19 =========================-->
    <measure number="19" width="128.02">
      <note color="#FF0000" default-x="13" default-y="0">
        <pitch>
          <step>G</step>
          <alter>1</alter>
          <octave>3</octave>
        </pitch>
        <duration>15120</duration>
        <type>quarter</type>
        <dot />
        <accidental>sharp</accidental>
        <stem>down</stem>
        <notehead color="#FF0000" parentheses="no">normal</notehead>
        <notations>
          <fermata type="upright" />
        </notations>
      </note>
      <note>
        <rest />
        <duration>5040</duration>
        <type>eighth</type>
      </note>
      <note>
        <rest />
        <duration>2520</duration>
        <type>16th</type>
      </note>
      <note>
        <rest />
        <duration>5040</duration>
        <type>eighth</type>
      </note>
      <note>
        <rest />
        <duration>2520</duration>
        <type>16th</type>
      </note>
    </measure>
  </part>
</score-partwise>