<?xml version="1.0" encoding="utf-8"?>
<!DOCTYPE score-partwise  PUBLIC "-//Recordare//DTD MusicXML 3.1 Partwise//EN" "http://www.musicxml.org/dtds/partwise.dtd">
<score-partwise version="3.1">
  <work>
    <work-title>Sonatine N.2 op.60</work-title>
  </work>
  <movement-title>Sonatine N.2 op.60</movement-title>
  <identification>
    <creator type="composer">D. F. Kuhlau</creator>
    <encoding>
      <encoding-date>2023-04-08</encoding-date>
      <software>music21 v.7.3.3</software>
      <software>Finale 2014 for Windows</software>
      <software>Dolet Light for Finale 2014</software>
      <supports attribute="new-system" element="print" type="yes" value="yes" />
      <supports attribute="new-page" element="print" type="yes" value="yes" />
    </encoding>
  </identification>
  <defaults>
    <scaling>
      <millimeters>8.128</millimeters>
      <tenths>40</tenths>
    </scaling>
    <page-layout>
      <page-height>1462</page-height>
      <page-width>1033</page-width>
      <page-margins>
        <left-margin>49</left-margin>
        <right-margin>49</right-margin>
        <top-margin>49</top-margin>
        <bottom-margin>99</bottom-margin>
      </page-margins>
    </page-layout>
    <system-layout>
      <system-margins>
        <left-margin>0</left-margin>
        <right-margin>0</right-margin>
      </system-margins>
      <system-distance>103</system-distance>
      <top-system-distance>60</top-system-distance>
    </system-layout>
    <appearance>
      <line-width type="stem">0.918</line-width>
      <line-width type="beam">5</line-width>
      <line-width type="staff">0.918</line-width>
      <line-width type="light barline">0.918</line-width>
      <line-width type="heavy barline">5</line-width>
      <line-width type="leger">1.0807</line-width>
      <line-width type="ending">0.957</line-width>
      <line-width type="wedge">0.918</line-width>
      <line-width type="enclosure">0.918</line-width>
      <line-width type="tuplet bracket">0.918</line-width>
      <note-size type="grace">60</note-size>
      <note-size type="cue">60</note-size>
      <distance type="hyphen">120</distance>
      <distance type="beam">8</distance>
    </appearance>
    <music-font font-family="Maestro,engraved" font-size="23" />
    <word-font font-family="FreeSerif" font-size="9.6" />
  </defaults>
  <credit page="1">
    <credit-words default-x="517" default-y="1398" font-family="Times New Roman" font-size="23" justify="center" valign="top">Sonatine N.2 op.60</credit-words>
  </credit>
  <credit page="1">
    <credit-words default-x="984" default-y="1331" font-family="Times New Roman" font-size="11.5" justify="right" valign="top">D. F. Kuhlau</credit-words>
  </credit>
  <credit page="1">
    <credit-words default-x="49" default-y="1409" font-family="Times New Roman" font-size="11.5" valign="top">Score</credit-words>
  </credit>
  <part-list>
    <score-part id="P1">
      <part-name>Voice</part-name>
      <score-instrument id="Id0820c52612302124021971f18062566">
        <instrument-name>SmartMusic SoftSynth 1</instrument-name>
      </score-instrument>
    </score-part>
  </part-list>
  <!--=========================== Part 1 ===========================-->
  <part id="P1">
    <!--========================= Measure 1 ==========================-->
    <measure number="1" width="307">
      <print>
        <system-layout>
          <top-system-distance>173</top-system-distance>
        </system-layout>
        <measure-numbering>system</measure-numbering>
      </print>
      <attributes>
        <divisions>10080</divisions>
        <key>
          <fifths>3</fifths>
          <mode>major</mode>
        </key>
        <time symbol="common">
          <beats>4</beats>
          <beat-type>4</beat-type>
        </time>
        <clef>
          <sign>F</sign>
          <line>4</line>
        </clef>
      </attributes>
      <direction placement="above">
        <direction-type>
          <words default-y="40" enclosure="none" font-family="Times New Roman" font-size="13.4" font-weight="bold">Allegro con spirito</words>
        </direction-type>
      </direction>
      <direction placement="below">
        <direction-type>
          <dynamics default-x="-36" default-y="-70">
            <f />
          </dynamics>
        </direction-type>
        <sound dynamics="88" />
      </direction>
      <note default-x="132">
        <pitch>
          <step>A</step>
          <octave>3</octave>
        </pitch>
        <duration>20160</duration>
        <type>half</type>
        <stem default-y="-35.5">down</stem>
        <notations>
          <slur number="1" placement="above" type="start" />
        </notations>
      </note>
      <note default-x="204">
        <pitch>
          <step>E</step>
          <octave>3</octave>
        </pitch>
        <duration>10080</duration>
        <type>quarter</type>
        <stem default-y="-50">down</stem>
        <notations>
          <slur number="1" type="stop" />
        </notations>
      </note>
      <note default-x="249">
        <rest />
        <duration>7560</duration>
        <type>eighth</type>
        <dot />
      </note>
      <note default-x="286">
        <pitch>
          <step>C</step>
          <alter>1</alter>
          <octave>4</octave>
        </pitch>
        <duration>2520</duration>
        <type>16th</type>
        <stem default-y="-25.5">down</stem>
        <notations>
          <slur number="2" placement="above" type="start" />
        </notations>
      </note>
    </measure>
    <!--========================= Measure 2 ==========================-->
    <measure number="2" width="235">
      <note default-x="16">
        <pitch>
          <step>C</step>
          <alter>1</alter>
          <octave>4</octave>
        </pitch>
        <duration>20160</duration>
        <type>half</type>
        <stem default-y="-25.5">down</stem>
      </note>
      <note default-x="99">
        <pitch>
          <step>A</step>
          <octave>3</octave>
        </pitch>
        <duration>10080</duration>
        <type>quarter</type>
        <stem default-y="-35.5">down</stem>
        <notations>
          <slur number="2" type="stop" />
        </notations>
      </note>
      <note default-x="150">
        <rest />
        <duration>7560</duration>
        <type>eighth</type>
        <dot />
      </note>
      <attributes>
        <clef>
          <sign>G</sign>
          <line>2</line>
        </clef>
      </attributes>
      <note default-x="207">
        <pitch>
          <step>F</step>
          <alter>1</alter>
          <octave>4</octave>
        </pitch>
        <duration>2520</duration>
        <type>16th</type>
        <stem default-y="0.5">up</stem>
        <notations>
          <slur bezier-x="-59" bezier-y="47" default-x="7" default-y="9" number="3" placement="above" type="start" />
        </notations>
      </note>
    </measure>
    <!--========================= Measure 3 ==========================-->
    <measure number="3" width="151">
      <direction placement="below">
        <direction-type>
          <wedge number="1" spread="15" type="diminuendo" />
        </direction-type>
      </direction>
      <note default-x="13">
        <pitch>
          <step>F</step>
          <alter>1</alter>
          <octave>4</octave>
        </pitch>
        <duration>35280</duration>
        <type>half</type>
        <dot />
        <dot />
        <stem default-y="0.5">up</stem>
      </note>
      <direction placement="below">
        <direction-type>
          <wedge number="1" spread="0" type="stop" />
        </direction-type>
      </direction>
      <note default-x="122">
        <pitch>
          <step>E</step>
          <octave>4</octave>
        </pitch>
        <duration>5040</duration>
        <type>eighth</type>
        <stem default-y="-4">up</stem>
      </note>
    </measure>
    <!--========================= Measure 4 ==========================-->
    <measure number="4" width="242">
      <direction placement="below">
        <direction-type>
          <dynamics default-x="-36" default-y="-72">
            <p />
          </dynamics>
        </direction-type>
        <sound dynamics="44" />
      </direction>
      <note color="#FF0000" default-x="26">
        <pitch>
          <step>E</step>
          <alter>-1</alter>
          <octave>4</octave>
        </pitch>
        <duration>15120</duration>
        <type>quarter</type>
        <dot />
        <accidental>flat</accidental>
        <stem default-y="-9.5">up</stem>
        <notehead color="#FF0000" parentheses="no">normal</notehead>
      </note>
      <note default-x="92">
        <pitch>
          <step>C</step>
          <alter>1</alter>
          <octave>5</octave>
        </pitch>
        <duration>2520</duration>
        <type>16th</type>
        <stem default-y="-50">down</stem>
        <beam number="1">begin</beam>
        <beam number="2">begin</beam>
      </note>
      <note default-x="112">
        <pitch>
          <step>B</step>
          <octave>4</octave>
        </pitch>
        <duration>2520</duration>
        <type>16th</type>
        <stem default-y="-55">down</stem>
        <beam number="1">end</beam>
        <beam number="2">end</beam>
      </note>
      <note default-x="131">
        <pitch>
          <step>E</step>
          <octave>4</octave>
        </pitch>
        <duration>10080</duration>
        <type>quarter</type>
        <stem default-y="-4">up</stem>
        <notations>
          <slur number="3" type="stop" />
        </notations>
      </note>
      <note default-x="181">
        <rest />
        <duration>7560</duration>
        <type>eighth</type>
        <dot />
      </note>
      <note default-x="222">
        <pitch>
          <step>D</step>
          <alter>0</alter>
          <octave>5</octave>
        </pitch>
        <duration>2520</duration>
        <type>16th</type>
        <accidental>natural</accidental>
        <stem default-y="-45.5">down</stem>
      </note>
    </measure>
    <!--========================= Measure 5 ==========================-->
    <measure number="5" width="226">
      <print new-system="yes">
        <system-layout>
          <system-distance>150</system-distance>
        </system-layout>
      </print>
      <direction placement="below">
        <direction-type>
          <wedge number="2" spread="15" type="diminuendo" />
        </direction-type>
      </direction>
      <note default-x="100">
        <pitch>
          <step>D</step>
          <octave>5</octave>
        </pitch>
        <duration>35280</duration>
        <type>half</type>
        <dot />
        <dot />
        <stem default-y="-45">down</stem>
      </note>
      <direction placement="below">
        <direction-type>
          <wedge number="2" spread="0" type="stop" />
        </direction-type>
      </direction>
      <note default-x="199">
        <pitch>
          <step>C</step>
          <alter>1</alter>
          <octave>5</octave>
        </pitch>
        <duration>5040</duration>
        <type>eighth</type>
        <stem default-y="-50">down</stem>
      </note>
    </measure>
    <!--========================= Measure 6 ==========================-->
    <measure number="6" width="244">
      <direction placement="below">
        <direction-type>
          <dynamics default-x="-36" default-y="-75">
            <p />
          </dynamics>
        </direction-type>
        <sound dynamics="44" />
      </direction>
      <note default-x="13">
        <pitch>
          <step>C</step>
          <alter>1</alter>
          <octave>5</octave>
        </pitch>
        <duration>15120</duration>
        <type>quarter</type>
        <dot />
        <stem default-y="-50">down</stem>
        <notations>
          <articulations>
            <accent default-x="0" default-y="3" placement="above" />
          </articulations>
        </notations>
      </note>
      <note default-x="73">
        <pitch>
          <step>B</step>
          <octave>4</octave>
        </pitch>
        <duration>5040</duration>
        <type>eighth</type>
        <stem default-y="-55.5">down</stem>
      </note>
      <note default-x="91">
        <grace slash="yes" />
        <pitch>
          <step>A</step>
          <octave>4</octave>
        </pitch>
        <type>32nd</type>
        <stem default-y="9">up</stem>
        <beam number="1">begin</beam>
        <beam number="2">begin</beam>
        <beam number="3">begin</beam>
      </note>
      <note default-x="104">
        <grace slash="yes" />
        <pitch>
          <step>C</step>
          <alter>1</alter>
          <octave>5</octave>
        </pitch>
        <type>32nd</type>
        <stem default-y="10.5">up</stem>
        <beam number="1">continue</beam>
        <beam number="2">continue</beam>
        <beam number="3">continue</beam>
      </note>
      <note default-x="117">
        <grace slash="yes" />
        <pitch>
          <step>B</step>
          <octave>4</octave>
        </pitch>
        <type>32nd</type>
        <stem default-y="12">up</stem>
        <beam number="1">end</beam>
        <beam number="2">end</beam>
        <beam number="3">end</beam>
      </note>
      <note default-x="130">
        <pitch>
          <step>A</step>
          <octave>4</octave>
        </pitch>
        <duration>10080</duration>
        <type>quarter</type>
        <stem default-y="10.5">up</stem>
      </note>
      <note default-x="176">
        <rest />
        <duration>7560</duration>
        <type>eighth</type>
        <dot />
      </note>
      <note default-x="213">
        <pitch>
          <step>A</step>
          <octave>4</octave>
        </pitch>
        <duration>2520</duration>
        <type>16th</type>
        <stem default-y="10.5">up</stem>
      </note>
    </measure>
    <!--========================= Measure 7 ==========================-->
    <measure number="7" width="225">
      <direction placement="below">
        <direction-type>
          <dynamics default-x="-36" default-y="-80">
            <p />
          </dynamics>
        </direction-type>
        <sound dynamics="44" />
      </direction>
      <note default-x="13">
        <pitch>
          <step>G</step>
          <alter>1</alter>
          <octave>4</octave>
        </pitch>
        <duration>5040</duration>
        <type>eighth</type>
        <stem default-y="6">up</stem>
      </note>
      <note default-x="40">
        <rest />
        <duration>5040</duration>
        <type>eighth</type>
      </note>
      <note default-x="67">
        <pitch>
          <step>D</step>
          <octave>5</octave>
        </pitch>
        <duration>5040</duration>
        <type>eighth</type>
        <stem default-y="-45">down</stem>
      </note>
      <note default-x="93">
        <rest />
        <duration>5040</duration>
        <type>eighth</type>
      </note>
      <note default-x="119">
        <pitch>
          <step>C</step>
          <alter>1</alter>
          <octave>5</octave>
        </pitch>
        <duration>5040</duration>
        <type>eighth</type>
        <stem default-y="-50">down</stem>
      </note>
      <note default-x="145">
        <rest />
        <duration>5040</duration>
        <type>eighth</type>
      </note>
      <note default-x="171">
        <pitch>
          <step>A</step>
          <octave>5</octave>
        </pitch>
        <duration>5040</duration>
        <type>eighth</type>
        <stem default-y="-25">down</stem>
      </note>
      <note default-x="197">
        <rest />
        <duration>5040</duration>
        <type>eighth</type>
      </note>
    </measure>
    <!--========================= Measure 8 ==========================-->
    <measure number="8" width="241">
      <direction placement="below">
        <direction-type>
          <dynamics default-x="-36" default-y="-80">
            <p />
          </dynamics>
        </direction-type>
        <sound dynamics="44" />
      </direction>
      <note default-x="13">
        <pitch>
          <step>G</step>
          <alter>1</alter>
          <octave>5</octave>
        </pitch>
        <duration>5040</duration>
        <type>eighth</type>
        <stem default-y="-30">down</stem>
      </note>
      <note default-x="41">
        <rest />
        <duration>5040</duration>
        <type>eighth</type>
      </note>
      <note default-x="69">
        <pitch>
          <step>E</step>
          <octave>6</octave>
        </pitch>
        <duration>20160</duration>
        <type>half</type>
        <stem default-y="-20.5">down</stem>
      </note>
      <note default-x="141">
        <rest />
        <duration>5040</duration>
        <type>eighth</type>
      </note>
      <note default-x="169">
        <pitch>
          <step>D</step>
          <octave>5</octave>
        </pitch>
        <duration>1260</duration>
        <type>32nd</type>
        <stem default-y="-62.5">down</stem>
        <beam number="1">begin</beam>
        <beam number="2">begin</beam>
        <beam number="3">begin</beam>
        <notations>
          <slur number="4" placement="above" type="start" />
        </notations>
      </note>
      <note default-x="187">
        <pitch>
          <step>C</step>
          <alter>1</alter>
          <octave>5</octave>
        </pitch>
        <duration>1260</duration>
        <type>32nd</type>
        <stem default-y="-64">down</stem>
        <beam number="1">continue</beam>
        <beam number="2">continue</beam>
        <beam number="3">continue</beam>
      </note>
      <note default-x="205">
        <pitch>
          <step>B</step>
          <octave>4</octave>
        </pitch>
        <duration>1260</duration>
        <type>32nd</type>
        <stem default-y="-65.5">down</stem>
        <beam number="1">continue</beam>
        <beam number="2">continue</beam>
        <beam number="3">continue</beam>
      </note>
      <note default-x="223">
        <pitch>
          <step>A</step>
          <octave>4</octave>
        </pitch>
        <duration>1260</duration>
        <type>32nd</type>
        <stem default-y="-67">down</stem>
        <beam number="1">end</beam>
        <beam number="2">end</beam>
        <beam number="3">end</beam>
      </note>
    </measure>
    <!--========================= Measure 9 ==========================-->
    <measure number="9" width="389">
      <print new-system="yes">
        <system-layout>
          <system-distance>172</system-distance>
        </system-layout>
      </print>
      <direction placement="below">
        <direction-type>
          <dynamics default-x="-36" default-y="-80">
            <p />
          </dynamics>
        </direction-type>
        <sound dynamics="44" />
      </direction>
      <note default-x="100">
        <pitch>
          <step>G</step>
          <alter>1</alter>
          <octave>4</octave>
        </pitch>
        <duration>7560</duration>
        <type>eighth</type>
        <dot />
        <stem default-y="-65">down</stem>
        <beam number="1">begin</beam>
        <notations>
          <slur number="4" type="stop" />
        </notations>
      </note>
      <note default-x="149">
        <pitch>
          <step>G</step>
          <alter>1</alter>
          <octave>4</octave>
        </pitch>
        <duration>2520</duration>
        <type>16th</type>
        <stem default-y="-65">down</stem>
        <beam number="1">continue</beam>
        <beam number="2">backward hook</beam>
      </note>
      <note default-x="172">
        <pitch>
          <step>D</step>
          <octave>5</octave>
        </pitch>
        <duration>7560</duration>
        <type>eighth</type>
        <dot />
        <stem default-y="-65">down</stem>
        <beam number="1">continue</beam>
      </note>
      <note default-x="221">
        <pitch>
          <step>D</step>
          <octave>5</octave>
        </pitch>
        <duration>2520</duration>
        <type>16th</type>
        <stem default-y="-65">down</stem>
        <beam number="1">end</beam>
        <beam number="2">backward hook</beam>
      </note>
      <note color="#FF0000" default-x="244">
        <pitch>
          <step>D</step>
          <alter>-1</alter>
          <octave>5</octave>
        </pitch>
        <duration>7560</duration>
        <type>eighth</type>
        <dot />
        <accidental>flat</accidental>
        <stem default-y="-50">down</stem>
        <notehead color="#FF0000" parentheses="no">normal</notehead>
        <beam number="1">begin</beam>
      </note>
      <note color="#FF0000" default-x="293">
        <pitch>
          <step>D</step>
          <alter>-1</alter>
          <octave>5</octave>
        </pitch>
        <duration>2520</duration>
        <type>16th</type>
        <accidental>flat</accidental>
        <stem default-y="-50">down</stem>
        <notehead color="#FF0000" parentheses="no">normal</notehead>
        <beam number="1">continue</beam>
        <beam number="2">backward hook</beam>
      </note>
      <note default-x="316">
        <pitch>
          <step>A</step>
          <octave>5</octave>
        </pitch>
        <duration>7560</duration>
        <type>eighth</type>
        <dot />
        <stem default-y="-50">down</stem>
        <beam number="1">continue</beam>
      </note>
      <note default-x="365">
        <pitch>
          <step>A</step>
          <octave>5</octave>
        </pitch>
        <duration>2520</duration>
        <type>16th</type>
        <stem default-y="-50">down</stem>
        <beam number="1">end</beam>
        <beam number="2">backward hook</beam>
      </note>
    </measure>
    <!--========================= Measure 10 =========================-->
    <measure number="10" width="240">
      <note color="#FF0000" default-x="13">
        <pitch>
          <step>A</step>
          <alter>-1</alter>
          <octave>5</octave>
        </pitch>
        <duration>5040</duration>
        <type>eighth</type>
        <accidental>flat</accidental>
        <stem default-y="-30.5">down</stem>
        <notehead color="#FF0000" parentheses="no">normal</notehead>
        <notations>
          <articulations>
            <staccato default-x="0" default-y="9" placement="above" />
          </articulations>
        </notations>
      </note>
      <note default-x="47">
        <rest />
        <duration>5040</duration>
        <type>eighth</type>
      </note>
      <direction placement="below">
        <direction-type>
          <dynamics default-x="-36" default-y="-73" relative-x="-4">
            <f />
          </dynamics>
        </direction-type>
        <sound dynamics="88" />
      </direction>
      <note color="#FF0000" default-x="82">
        <pitch>
          <step>F</step>
          <alter>-1</alter>
          <octave>6</octave>
        </pitch>
        <duration>20160</duration>
        <type>half</type>
        <accidental>flat</accidental>
        <stem default-y="-20.5">down</stem>
        <notehead color="#FF0000" parentheses="no">normal</notehead>
      </note>
      <note default-x="172">
        <rest />
        <duration>7560</duration>
        <type>eighth</type>
        <dot />
      </note>
      <note color="#FF0000" default-x="217">
        <pitch>
          <step>F</step>
          <alter>-1</alter>
          <octave>6</octave>
        </pitch>
        <duration>2520</duration>
        <type>16th</type>
        <accidental>flat</accidental>
        <stem default-y="-20.5">down</stem>
        <notehead color="#FF0000" parentheses="no">normal</notehead>
        <notations>
          <slur number="5" placement="above" type="start" />
        </notations>
      </note>
    </measure>
    <!--========================= Measure 11 =========================-->
    <measure number="11" width="306">
      <direction placement="below">
        <direction-type>
          <dynamics default-x="-36" default-y="-80">
            <p />
          </dynamics>
        </direction-type>
        <sound dynamics="44" />
      </direction>
      <note color="#FF0000" default-x="16">
        <pitch>
          <step>F</step>
          <alter>-1</alter>
          <octave>6</octave>
        </pitch>
        <duration>15120</duration>
        <type>quarter</type>
        <dot />
        <accidental>flat</accidental>
        <stem default-y="-20.5">down</stem>
        <notehead color="#FF0000" parentheses="no">normal</notehead>
        <notations>
          <articulations>
            <tenuto default-x="0" default-y="34" placement="above" />
          </articulations>
        </notations>
      </note>
      <note color="#FF0000" default-x="102">
        <pitch>
          <step>E</step>
          <alter>-1</alter>
          <octave>6</octave>
        </pitch>
        <duration>2520</duration>
        <type>16th</type>
        <accidental>flat</accidental>
        <stem default-y="-20">down</stem>
        <notehead color="#FF0000" parentheses="no">normal</notehead>
        <beam number="1">begin</beam>
        <beam number="2">begin</beam>
      </note>
      <note color="#FF0000" default-x="130">
        <pitch>
          <step>D</step>
          <alter>-1</alter>
          <octave>6</octave>
        </pitch>
        <duration>2520</duration>
        <type>16th</type>
        <accidental>flat</accidental>
        <stem default-y="-25">down</stem>
        <notehead color="#FF0000" parentheses="no">normal</notehead>
        <beam number="1">end</beam>
        <beam number="2">end</beam>
      </note>
      <note color="#FF0000" default-x="159">
        <pitch>
          <step>E</step>
          <alter>-1</alter>
          <octave>6</octave>
        </pitch>
        <duration>15120</duration>
        <type>quarter</type>
        <dot />
        <accidental>flat</accidental>
        <stem default-y="-20.5">down</stem>
        <notehead color="#FF0000" parentheses="no">normal</notehead>
        <notations>
          <articulations>
            <tenuto default-x="0" default-y="29" placement="above" />
          </articulations>
        </notations>
      </note>
      <note color="#FF0000" default-x="244">
        <pitch>
          <step>D</step>
          <alter>-1</alter>
          <octave>6</octave>
        </pitch>
        <duration>2520</duration>
        <type>16th</type>
        <accidental>flat</accidental>
        <stem default-y="-20">down</stem>
        <notehead color="#FF0000" parentheses="no">normal</notehead>
        <beam number="1">begin</beam>
        <beam number="2">begin</beam>
      </note>
      <note color="#FF0000" default-x="278">
        <pitch>
          <step>C</step>
          <alter>0</alter>
          <octave>6</octave>
        </pitch>
        <duration>2520</duration>
        <type>16th</type>
        <accidental>natural</accidental>
        <stem default-y="-25">down</stem>
        <notehead color="#FF0000" parentheses="no">normal</notehead>
        <beam number="1">end</beam>
        <beam number="2">end</beam>
      </note>
    </measure>
    <!--========================= Measure 12 =========================-->
    <measure number="12" width="367">
      <print new-system="yes">
        <system-layout>
          <system-distance>150</system-distance>
        </system-layout>
      </print>
      <note color="#FF0000" default-x="102">
        <pitch>
          <step>D</step>
          <alter>-1</alter>
          <octave>6</octave>
        </pitch>
        <duration>15120</duration>
        <type>quarter</type>
        <dot />
        <accidental>flat</accidental>
        <stem default-y="-20">down</stem>
        <notehead color="#FF0000" parentheses="no">normal</notehead>
        <notations>
          <articulations>
            <tenuto default-x="0" default-y="24" placement="above" />
          </articulations>
        </notations>
      </note>
      <note color="#FF0000" default-x="184">
        <pitch>
          <step>C</step>
          <alter>-1</alter>
          <octave>6</octave>
        </pitch>
        <duration>2520</duration>
        <type>16th</type>
        <accidental>flat</accidental>
        <stem default-y="-20">down</stem>
        <notehead color="#FF0000" parentheses="no">normal</notehead>
        <beam number="1">begin</beam>
        <beam number="2">begin</beam>
      </note>
      <note color="#EE82EE" default-x="207">
        <pitch>
          <step>B</step>
          <alter>-2</alter>
          <octave>5</octave>
        </pitch>
        <duration>2520</duration>
        <type>16th</type>
        <accidental>flat-flat</accidental>
        <stem default-y="-25">down</stem>
        <notehead color="#EE82EE" parentheses="no">normal</notehead>
        <beam number="1">end</beam>
        <beam number="2">end</beam>
      </note>
      <note color="#FF0000" default-x="230">
        <pitch>
          <step>A</step>
          <alter>-1</alter>
          <octave>5</octave>
        </pitch>
        <duration>10080</duration>
        <type>quarter</type>
        <accidental>flat</accidental>
        <stem default-y="-30">down</stem>
        <notehead color="#FF0000" parentheses="no">normal</notehead>
        <notations>
          <slur number="5" type="stop" />
        </notations>
      </note>
      <note default-x="292">
        <rest />
        <duration>7560</duration>
        <type>eighth</type>
        <dot />
      </note>
      <note color="#FF0000" default-x="342">
        <pitch>
          <step>A</step>
          <alter>-1</alter>
          <octave>5</octave>
        </pitch>
        <duration>2520</duration>
        <type>16th</type>
        <accidental>flat</accidental>
        <stem default-y="-30">down</stem>
        <notehead color="#FF0000" parentheses="no">normal</notehead>
        <notations>
          <slur number="6" placement="above" type="start" />
        </notations>
      </note>
    </measure>
    <!--========================= Measure 13 =========================-->
    <measure number="13" width="353">
      <note color="#FF0000" default-x="16">
        <grace slash="yes" />
        <pitch>
          <step>C</step>
          <alter>-1</alter>
          <octave>6</octave>
        </pitch>
        <type>eighth</type>
        <accidental>flat</accidental>
        <stem default-y="37">up</stem>
        <notehead color="#FF0000" parentheses="no">normal</notehead>
        <notations>
          <slur number="1" placement="below" type="start" />
        </notations>
      </note>
      <note color="#FF0000" default-x="40">
        <pitch>
          <step>B</step>
          <alter>-2</alter>
          <octave>5</octave>
        </pitch>
        <duration>5040</duration>
        <type>eighth</type>
        <accidental>flat-flat</accidental>
        <stem default-y="-30">down</stem>
        <notehead color="#FF0000" parentheses="no">normal</notehead>
        <beam number="1">begin</beam>
        <notations>
          <slur number="1" type="stop" />
          <articulations>
            <accent default-x="0" default-y="14" placement="above" />
          </articulations>
        </notations>
      </note>
      <note color="#FF0000" default-x="78">
        <pitch>
          <step>A</step>
          <alter>-1</alter>
          <octave>5</octave>
        </pitch>
        <duration>5040</duration>
        <type>eighth</type>
        <accidental>flat</accidental>
        <stem default-y="-30">down</stem>
        <notehead color="#FF0000" parentheses="no">normal</notehead>
        <beam number="1">continue</beam>
        <notations>
          <slur number="6" type="stop" />
          <articulations>
            <staccato default-x="0" default-y="9" placement="above" />
          </articulations>
        </notations>
      </note>
      <note color="#FF0000" default-x="117">
        <pitch>
          <step>A</step>
          <alter>-1</alter>
          <octave>5</octave>
        </pitch>
        <duration>5040</duration>
        <type>eighth</type>
        <accidental>flat</accidental>
        <stem default-y="-30">down</stem>
        <notehead color="#FF0000" parentheses="no">normal</notehead>
        <beam number="1">continue</beam>
        <notations>
          <articulations>
            <staccato default-x="0" default-y="9" placement="above" />
          </articulations>
        </notations>
      </note>
      <note color="#FF0000" default-x="155">
        <pitch>
          <step>A</step>
          <alter>-1</alter>
          <octave>5</octave>
        </pitch>
        <duration>5040</duration>
        <type>eighth</type>
        <accidental>flat</accidental>
        <stem default-y="-30">down</stem>
        <notehead color="#FF0000" parentheses="no">normal</notehead>
        <beam number="1">end</beam>
        <notations>
          <articulations>
            <staccato default-x="0" default-y="9" placement="above" />
          </articulations>
        </notations>
      </note>
      <note color="#FF0000" default-x="175">
        <grace slash="yes" />
        <pitch>
          <step>C</step>
          <alter>-1</alter>
          <octave>6</octave>
        </pitch>
        <type>eighth</type>
        <accidental>flat</accidental>
        <stem default-y="37">up</stem>
        <notehead color="#FF0000" parentheses="no">normal</notehead>
        <notations>
          <slur number="2" placement="below" type="start" />
        </notations>
      </note>
      <note color="#EE82EE" default-x="200">
        <pitch>
          <step>B</step>
          <alter>-2</alter>
          <octave>5</octave>
        </pitch>
        <duration>5040</duration>
        <type>eighth</type>
        <accidental>flat-flat</accidental>
        <stem default-y="-30">down</stem>
        <notehead color="#EE82EE" parentheses="no">normal</notehead>
        <beam number="1">begin</beam>
        <notations>
          <slur number="2" type="stop" />
          <slur number="3" placement="above" type="start" />
        </notations>
      </note>
      <direction placement="below">
        <direction-type>
          <wedge number="3" spread="0" type="crescendo" />
        </direction-type>
      </direction>
      <note color="#FF0000" default-x="237">
        <pitch>
          <step>A</step>
          <alter>-1</alter>
          <octave>5</octave>
        </pitch>
        <duration>5040</duration>
        <type>eighth</type>
        <accidental>flat</accidental>
        <stem default-y="-30">down</stem>
        <notehead color="#FF0000" parentheses="no">normal</notehead>
        <beam number="1">continue</beam>
        <notations>
          <slur number="3" type="stop" />
          <articulations>
            <staccato default-x="0" default-y="9" placement="above" />
          </articulations>
        </notations>
      </note>
      <note color="#FF0000" default-x="276">
        <pitch>
          <step>A</step>
          <alter>-1</alter>
          <octave>5</octave>
        </pitch>
        <duration>5040</duration>
        <type>eighth</type>
        <accidental>flat</accidental>
        <stem default-y="-30">down</stem>
        <notehead color="#FF0000" parentheses="no">normal</notehead>
        <beam number="1">continue</beam>
        <notations>
          <articulations>
            <staccato default-x="0" default-y="9" placement="above" />
          </articulations>
        </notations>
      </note>
      <direction placement="below">
        <direction-type>
          <wedge number="3" spread="15" type="stop" />
        </direction-type>
      </direction>
      <note color="#FF0000" default-x="314">
        <pitch>
          <step>A</step>
          <alter>-1</alter>
          <octave>5</octave>
        </pitch>
        <duration>5040</duration>
        <type>eighth</type>
        <accidental>flat</accidental>
        <stem default-y="-30">down</stem>
        <notehead color="#FF0000" parentheses="no">normal</notehead>
        <beam number="1">end</beam>
        <notations>
          <articulations>
            <staccato default-x="0" default-y="9" placement="above" />
          </articulations>
        </notations>
      </note>
    </measure>
    <!--========================= Measure 14 =========================-->
    <measure number="14" width="215">
      <direction placement="below">
        <direction-type>
          <wedge number="4" spread="15" type="diminuendo" />
        </direction-type>
      </direction>
      <note color="#FF0000" default-x="13">
        <pitch>
          <step>A</step>
          <alter>-1</alter>
          <octave>5</octave>
        </pitch>
        <duration>15120</duration>
        <type>quarter</type>
        <dot />
        <accidental>flat</accidental>
        <stem default-y="-30">down</stem>
        <notehead color="#FF0000" parentheses="no">normal</notehead>
        <notations>
          <slur number="4" placement="above" type="start" />
        </notations>
      </note>
      <note color="#FF0000" default-x="96">
        <pitch>
          <step>G</step>
          <alter>-1</alter>
          <octave>5</octave>
        </pitch>
        <duration>2520</duration>
        <type>16th</type>
        <accidental>flat</accidental>
        <stem default-y="-35">down</stem>
        <notehead color="#FF0000" parentheses="no">normal</notehead>
        <beam number="1">begin</beam>
        <beam number="2">begin</beam>
      </note>
      <note color="#FF0000" default-x="121">
        <pitch>
          <step>F</step>
          <alter>-1</alter>
          <octave>5</octave>
        </pitch>
        <duration>2520</duration>
        <type>16th</type>
        <accidental>flat</accidental>
        <stem default-y="-40">down</stem>
        <notehead color="#FF0000" parentheses="no">normal</notehead>
        <beam number="1">end</beam>
        <beam number="2">end</beam>
      </note>
      <direction placement="below">
        <direction-type>
          <wedge number="4" spread="0" type="stop" />
        </direction-type>
      </direction>
      <note color="#FF0000" default-x="152">
        <pitch>
          <step>E</step>
          <alter>-1</alter>
          <octave>5</octave>
        </pitch>
        <duration>10080</duration>
        <type>quarter</type>
        <accidental>flat</accidental>
        <stem default-y="-45.5">down</stem>
        <notehead color="#FF0000" parentheses="no">normal</notehead>
        <notations>
          <slur number="4" type="stop" />
        </notations>
      </note>
    </measure>
  </part>
</score-partwise>